<svg width="60" height="60" viewBox="0 0 60 60" fill="none" xmlns="http://www.w3.org/2000/svg">
<path d="M53.4675 13.4425C53.4675 13.1303 53.4403 12.8098 53.3883 12.4905C53.1245 10.8632 51.7384 9.54451 50.0946 9.35292C49.8651 9.32572 49.6321 9.30798 49.385 9.28787C49.2643 9.27841 49.1402 9.26895 49.0113 9.25713L48.621 9.22401L48.7605 8.85857C48.7984 8.75923 48.835 8.6658 48.8705 8.57473C48.9403 8.39497 49.0065 8.22585 49.0645 8.05792C49.534 6.70851 49.3093 5.22783 48.4625 4.09721C47.6145 2.96187 46.3101 2.35043 44.885 2.41903C43.4516 2.48762 42.295 3.17238 41.447 4.45437C41.117 4.95345 40.7824 5.45017 40.4477 5.94688C39.8682 6.80785 39.2697 7.69721 38.7033 8.58538C38.3733 9.10338 37.9866 9.31507 37.3692 9.31507C37.3669 9.31507 37.3657 9.31507 37.3633 9.31507C28.8328 9.29852 20.1581 9.30207 11.7695 9.30443H10.5242C10.1564 9.30443 9.79805 9.30916 9.44798 9.3612C8.01461 9.57644 6.99162 10.383 6.40502 11.7608C6.14957 12.3604 6.11408 13.0061 6.11526 13.6152C6.11644 19.3688 6.11645 25.1236 6.11645 30.8772V39.5082C6.11645 39.6915 6.11763 39.8559 6.12827 40.0203C6.22052 41.4537 6.84614 42.5098 8.04062 43.2489C8.64378 43.6226 9.36638 43.7965 10.316 43.7965C10.3172 43.7965 10.3184 43.7965 10.3208 43.7965C15.3849 43.7941 20.4502 43.7953 25.5143 43.7965C25.6692 43.7965 25.8254 43.8036 25.9897 43.8119C26.0713 43.8154 26.1577 43.8201 26.2499 43.8237L26.6094 43.8379L25.2518 49.5395H24.3459C24.1306 49.5395 23.9154 49.5383 23.6989 49.5359C23.2353 49.5324 22.7552 49.5276 22.2892 49.5477C20.7175 49.6163 19.5928 50.7694 19.5526 52.353C19.549 52.4772 19.5502 52.6013 19.5514 52.7515C19.5514 52.832 19.5526 52.9183 19.5526 53.0164V53.3121H18.921C18.7093 53.3121 18.526 53.3121 18.3427 53.3121C18.105 53.3133 17.8661 53.3121 17.6284 53.3109C17.0714 53.3086 16.4942 53.3062 15.9325 53.3334C15.5233 53.3535 15.2394 53.6728 15.2572 54.0927C15.2737 54.4818 15.5576 54.7573 15.9798 54.7916C16.0661 54.7987 16.1583 54.7975 16.2553 54.7963C16.2932 54.7963 16.331 54.7952 16.3689 54.7952C25.3156 54.7952 34.2612 54.7952 43.208 54.7952C43.2517 54.7952 43.2967 54.7963 43.3404 54.7963C43.467 54.7987 43.5864 54.8011 43.6952 54.7845C43.9483 54.7467 44.1553 54.5965 44.2641 54.3741C44.3693 54.1577 44.3599 53.9093 44.2392 53.6953C44.0902 53.4316 43.8643 53.3145 43.5072 53.3133L42.6793 53.3121C42.127 53.3121 41.5747 53.3109 41.0224 53.3086C40.8722 53.3074 40.7256 53.2991 40.5707 53.2908C40.5009 53.2873 40.4287 53.2825 40.3531 53.279L40.087 53.2672L40.0716 53.0011C40.0668 52.9266 40.0621 52.858 40.0586 52.7929C40.0491 52.6581 40.042 52.5387 40.0385 52.4192C39.9959 50.7032 38.857 49.5726 37.1386 49.5395C36.7365 49.5312 36.3249 49.5335 35.9276 49.5347C35.6426 49.5359 35.3575 49.5371 35.0737 49.5347C34.9436 49.5335 34.8171 49.5205 34.6941 49.5075C34.6408 49.5016 34.5864 49.4957 34.5309 49.491L34.318 49.472L32.9721 43.7918H44.4545C46.096 43.7918 47.7387 43.7918 49.3802 43.7906C50.2412 43.7894 50.913 43.6262 51.4948 43.2761C52.8229 42.4767 53.4687 41.2822 53.4687 39.6265L53.4675 31.0676C53.471 25.1957 53.471 19.3191 53.4675 13.4425ZM42.5611 5.45963L42.6048 5.39458C42.7136 5.23138 42.8248 5.06344 42.9573 4.90615C43.9199 3.75306 45.5875 3.55674 46.7547 4.46029C47.5873 5.10483 47.9563 6.10181 47.8073 7.05503C47.7399 7.48788 47.5649 7.91245 47.2775 8.2909C46.8032 8.91534 46.2959 9.52795 45.8051 10.1193C45.6241 10.3381 45.442 10.5569 45.2622 10.7768C43.6893 12.6951 42.114 14.6122 40.5387 16.5293C40.4832 16.5967 40.4276 16.6546 40.3566 16.7291C40.3211 16.7658 40.2809 16.8084 40.2348 16.8569L40.055 17.0508L36.5946 14.4797L36.7235 14.2526C36.7507 14.2042 36.7755 14.1592 36.798 14.1166C36.8477 14.0256 36.8938 13.9404 36.9494 13.8565C38.818 11.0559 40.6889 8.25778 42.5611 5.45963ZM33.4274 19.1264L35.7159 15.6872L39.1432 18.2216L36.5236 21.4243L33.4274 19.1264ZM35.9051 26.3831C35.8341 26.5037 35.7573 26.6185 35.6757 26.7249C35.1068 27.4735 34.3014 27.8768 33.2761 27.9265C32.9473 27.9419 32.5606 27.9549 32.1797 27.93C30.608 27.8271 28.9393 27.794 27.3344 28.5947L26.9761 28.7733L26.911 28.3783C26.8732 28.1453 26.8353 27.9135 26.8022 27.6817C26.5657 26.0603 26.4829 24.466 27.1334 22.8718C27.6431 21.6218 28.5691 20.7762 29.8854 20.3563C29.9682 20.3303 30.0521 20.3066 30.1361 20.2842C30.2047 20.2653 30.2733 20.2463 30.3419 20.225C31.4891 19.8702 32.3926 20.0429 33.1885 20.7714C33.768 21.3013 34.4374 21.7672 35.0855 22.2166C35.2464 22.329 35.4072 22.4402 35.5669 22.5525C35.8034 22.7193 35.9772 22.9191 36.0955 23.1651C36.1665 23.3118 36.2185 23.4762 36.2516 23.6583C36.4586 24.7889 36.3521 25.6286 35.9051 26.3831ZM7.59713 13.3408C7.59595 12.9056 7.69647 12.4905 7.88806 12.1239C8.00277 11.9039 8.15062 11.7017 8.3292 11.5243C8.80699 11.0465 9.46928 10.7721 10.1481 10.7721C10.1505 10.7721 10.1528 10.7721 10.1552 10.7721C16.7449 10.7898 23.4459 10.7875 29.9256 10.7863C32.0059 10.7863 34.0874 10.7851 36.1676 10.7851H37.0499L36.8548 11.205C36.8299 11.2594 36.8086 11.309 36.7897 11.354C36.7791 11.3788 36.7684 11.4025 36.759 11.4273C36.727 11.4994 36.6939 11.568 36.649 11.6354C36.2055 12.3001 35.7596 12.9636 35.315 13.6282C34.3724 15.0344 33.3979 16.489 32.4506 17.926C32.2093 18.2926 31.9219 18.4487 31.631 18.5244C31.534 18.5492 31.4359 18.5658 31.3389 18.5788C30.6506 18.6687 29.9232 18.7751 29.2704 19.0081C28.3503 19.3357 27.5816 19.8147 26.9654 20.4415C26.1742 21.2469 25.6361 22.2982 25.3594 23.585C25.1583 24.5204 25.1004 25.5103 25.1879 26.6244C25.2281 27.1306 25.2979 27.6627 25.3972 28.2281C25.5226 28.9376 25.6539 29.5538 25.8005 30.1097C25.8963 30.4739 26.095 30.727 26.3469 30.8027C26.5834 30.8748 26.8543 30.7885 27.1109 30.5614C28.0133 29.762 29.1001 29.3729 30.433 29.3729C30.4424 29.3729 30.4519 29.3729 30.4625 29.3729C30.8705 29.374 31.2833 29.3918 31.6818 29.4083C31.9077 29.4178 32.1348 29.4273 32.3607 29.4332C33.2075 29.458 34.1087 29.432 34.9649 29.0725C36.8169 28.2978 37.9653 26.3985 37.8234 24.3478C37.7926 23.9078 37.7252 23.4738 37.6235 23.0587C37.5383 22.7122 37.601 22.4425 37.8352 22.1599C39.8587 19.7011 41.913 17.1963 43.8986 14.7742L45.2977 13.0676C45.4396 12.8938 45.5827 12.7223 45.7258 12.5496C46.0783 12.1251 46.4437 11.6851 46.7843 11.2416C47.0374 10.9128 47.3555 10.765 47.7825 10.7792C48.0912 10.7887 48.4081 10.7875 48.7156 10.7851C49.0089 10.7827 49.3128 10.7816 49.6144 10.7898C50.026 10.8017 50.4068 10.9057 50.7367 11.0843C51.4629 11.477 51.9442 12.2291 51.9797 13.141C51.9844 13.2675 51.9844 13.3929 51.9833 13.5147V13.6258V33.2496L51.6982 33.2602C51.6036 33.2638 51.5149 33.2673 51.4274 33.2721C51.2465 33.2803 51.0762 33.2886 50.9035 33.2886C43.1619 33.2898 35.419 33.2898 27.6762 33.2898H23.6292C22.8202 33.2898 22.0101 33.2898 21.2012 33.2898C19.4308 33.2815 14.6221 33.2851 11.4396 33.2874C9.89384 33.2886 8.7384 33.2886 8.52079 33.2886C8.39543 33.2886 8.27124 33.2815 8.13878 33.2732C8.07492 33.2697 8.00869 33.2662 7.93655 33.2626L7.67756 33.2508L7.65508 32.993C7.65035 32.9326 7.64325 32.8747 7.63734 32.8191C7.62433 32.6961 7.61014 32.5684 7.61014 32.4383C7.60895 30.5472 7.61014 28.6562 7.61132 26.7663C7.6125 22.3633 7.61369 17.8148 7.59713 13.3408ZM36.8796 51.0225C37.523 51.0225 37.9511 51.1656 38.2243 51.4707C38.2964 51.5511 38.3567 51.6434 38.4064 51.7463C38.5519 52.0561 38.5921 52.4712 38.5318 53.0224L38.5034 53.2861H21.187L21.1196 53.085C20.9363 52.5387 20.9895 52.0242 21.271 51.6363C21.5595 51.2377 22.0692 51 22.644 51.0059C26.0619 51.032 29.5389 51.0284 32.9 51.0249C34.2269 51.0225 35.5538 51.0213 36.8796 51.0225ZM26.7892 49.5087L28.1398 43.8272H31.4477L32.803 49.5087H26.7892ZM51.3056 41.5648C50.8432 42.0485 50.1998 42.3194 49.4926 42.3265C49.3341 42.3276 49.1756 42.33 49.0172 42.33H45.1747C42.483 42.33 39.7913 42.33 37.0996 42.33C28.2628 42.33 19.426 42.33 10.5881 42.3276C10.2889 42.3276 9.94115 42.3229 9.59937 42.2685C8.51606 42.0947 7.67518 41.2041 7.64207 40.1977C7.60423 39.015 7.61251 37.8075 7.61961 36.6391C7.62315 36.1388 7.6267 35.6362 7.6267 35.1312V34.8746L7.88097 34.8391C7.93301 34.832 7.98386 34.8225 8.03235 34.8142C8.14589 34.7941 8.26297 34.774 8.38715 34.7729C8.87322 34.7681 9.36756 34.7693 9.84535 34.7693H10.5691C11.928 34.7693 14.0923 34.7705 16.1619 34.7705C16.2352 34.7705 16.3097 34.7705 16.3831 34.7705C16.4564 34.7705 16.5297 34.7705 16.603 34.7705C16.6764 34.7705 16.7497 34.7705 16.8218 34.7705C19.225 34.7705 21.3632 34.7693 21.7641 34.7669C31.4536 34.7693 41.1419 34.7693 50.8302 34.7693H51.9809V36.0383C51.9809 36.4167 51.9773 36.7952 51.9738 37.1736C51.9667 38.0204 51.9584 38.8956 51.9904 39.7518C52.0152 40.4224 51.7645 41.0835 51.3056 41.5648Z" fill="#222344"/>
<path d="M54.0626 31.0735C54.0626 25.1969 54.0626 19.3191 54.0591 13.4425C54.0591 13.0984 54.0295 12.7459 53.9728 12.3959C53.6617 10.4835 52.0959 8.99102 50.1646 8.76513C49.9316 8.73793 49.701 8.71901 49.4562 8.70008C49.5153 8.54752 49.5709 8.40087 49.623 8.25186C50.1575 6.71678 49.9009 5.0315 48.937 3.7424C47.9684 2.4474 46.4818 1.74964 44.8581 1.82769C43.226 1.90575 41.9132 2.6792 40.9553 4.12677C40.6253 4.62466 40.2918 5.12019 39.9583 5.61573C39.3765 6.47906 38.7757 7.37197 38.2056 8.26723C37.9833 8.61612 37.7882 8.72374 37.3707 8.72374C37.3695 8.72374 37.3671 8.72374 37.3659 8.72374C28.8343 8.70718 20.1595 8.71073 11.771 8.71309H10.5256C10.1507 8.71309 9.7522 8.71783 9.36192 8.77696C7.71212 9.02413 6.53419 9.95015 5.86244 11.5302C5.56442 12.2291 5.52539 12.9777 5.52539 13.6164C5.52657 19.37 5.52657 25.1248 5.52657 30.8784V39.5094C5.52657 39.6962 5.52776 39.8784 5.53958 40.0605C5.64366 41.676 6.38045 42.919 7.72986 43.7539C8.42999 44.1879 9.25311 44.3902 10.3163 44.3902C10.3175 44.3902 10.3199 44.3902 10.3211 44.3902C15.3852 44.3878 20.4493 44.389 25.5146 44.3902C25.6281 44.3902 25.7428 44.3949 25.8682 44.4008L24.7849 48.9517H24.3449C24.1309 48.9517 23.918 48.9505 23.7051 48.9481C23.2344 48.9446 22.746 48.9398 22.2647 48.9611C20.3984 49.0427 19.01 50.4643 18.9615 52.3423C18.958 52.463 18.9592 52.5836 18.9592 52.7243H18.9213C18.7084 52.7243 18.5251 52.7243 18.3406 52.7243C18.1041 52.7255 17.8676 52.7243 17.6322 52.7231C17.0669 52.7208 16.4827 52.7184 15.9055 52.7468C15.1676 52.7823 14.6366 53.3748 14.6685 54.1222C14.6981 54.8058 15.2184 55.325 15.9327 55.3853C16.0475 55.3948 16.1574 55.3936 16.2651 55.3924C16.3005 55.3924 16.336 55.3912 16.3715 55.3912C25.3183 55.3912 34.2638 55.3912 43.2106 55.3912C43.252 55.3912 43.2922 55.3924 43.3336 55.3924C43.3774 55.3936 43.4223 55.3936 43.4684 55.3936C43.5713 55.3936 43.6778 55.39 43.7866 55.3735C44.2289 55.3072 44.6073 55.0317 44.7989 54.6379C44.9905 54.2429 44.9751 53.7946 44.7563 53.4091C44.5009 52.9585 44.0811 52.7291 43.511 52.7279L42.6832 52.7267C42.132 52.7267 41.5809 52.7255 41.0286 52.7231C40.9056 52.7231 40.7803 52.716 40.649 52.709C40.6419 52.6037 40.636 52.5079 40.6336 52.4109C40.5828 50.3827 39.1849 48.9931 37.1543 48.954C36.7451 48.9458 36.3299 48.9481 35.929 48.9493C35.6464 48.9505 35.3637 48.9517 35.0811 48.9493C34.9924 48.9493 34.8978 48.9398 34.7996 48.9292L33.7234 44.389H44.4583C46.101 44.389 47.7425 44.389 49.3852 44.3878C50.3444 44.3866 51.1368 44.1915 51.805 43.7894C53.3057 42.887 54.0662 41.4879 54.065 39.6324L54.0626 31.0735ZM51.4975 43.282C50.9156 43.6321 50.2439 43.7953 49.3829 43.7965C47.7414 43.7977 46.0987 43.7977 44.4571 43.7977H32.9748L34.3206 49.4779L34.5335 49.4969C34.5891 49.5016 34.6423 49.5075 34.6967 49.5134C34.8185 49.5264 34.9451 49.5406 35.0763 49.5406C35.3613 49.543 35.6464 49.5418 35.9302 49.5406C36.3276 49.5394 36.7391 49.5383 37.1412 49.5454C38.8596 49.5785 39.9985 50.7091 40.0411 52.4251C40.0435 52.5446 40.0518 52.664 40.0612 52.7988C40.0659 52.8639 40.0695 52.9325 40.0742 53.007L40.0896 53.2731L40.3557 53.2849C40.4302 53.2885 40.5023 53.292 40.5733 53.2967C40.7282 53.305 40.8749 53.3133 41.0251 53.3145C41.5774 53.3168 42.1297 53.318 42.682 53.318L43.5098 53.3192C43.867 53.3192 44.0917 53.4375 44.2419 53.7012C44.3637 53.9153 44.3732 54.1624 44.2667 54.38C44.1591 54.6024 43.951 54.7514 43.6979 54.7904C43.5902 54.807 43.4708 54.8046 43.3431 54.8022C43.2981 54.8011 43.2544 54.8011 43.2106 54.8011C34.2638 54.8011 25.3171 54.8011 16.3715 54.8011C16.3337 54.8011 16.2958 54.8011 16.258 54.8022C16.161 54.8034 16.0687 54.8046 15.9824 54.7975C15.5602 54.762 15.2775 54.4877 15.2598 54.0986C15.2409 53.6787 15.5247 53.3594 15.9351 53.3393C16.4969 53.3121 17.074 53.3145 17.631 53.3168C17.8687 53.318 18.1076 53.3192 18.3453 53.318C18.5287 53.3168 18.712 53.3168 18.9237 53.318H19.5552V53.0224C19.5552 52.9242 19.5552 52.8379 19.554 52.7574C19.5528 52.6072 19.5528 52.4831 19.5552 52.3589C19.5954 50.7753 20.7213 49.6222 22.2919 49.5536C22.759 49.5335 23.238 49.5371 23.7016 49.5418C23.9168 49.5442 24.1332 49.5454 24.3485 49.5454H25.2544L26.6121 43.8438L26.2526 43.8296C26.1603 43.826 26.074 43.8213 25.9924 43.8178C25.828 43.8095 25.6719 43.8024 25.517 43.8024C20.4528 43.8012 15.3875 43.8 10.3234 43.8024C10.3222 43.8024 10.3211 43.8024 10.3187 43.8024C9.36901 43.8024 8.64642 43.6285 8.04326 43.2548C6.84878 42.5157 6.22316 41.4596 6.13091 40.0262C6.12026 39.8618 6.11908 39.6962 6.11908 39.5141V30.8831C6.11908 25.1283 6.11908 19.3747 6.1179 13.6211C6.1179 13.012 6.15339 12.3663 6.40766 11.7667C6.99425 10.3889 8.01843 9.58116 9.45062 9.3671C9.80069 9.31506 10.159 9.31033 10.5268 9.31033H11.7722C20.1607 9.30797 28.8343 9.30442 37.3659 9.32098C37.3683 9.32098 37.3695 9.32098 37.3719 9.32098C37.9892 9.32098 38.3759 9.10928 38.7059 8.59128C39.2712 7.70311 39.8708 6.81375 40.4503 5.95278C40.785 5.45607 41.1197 4.95936 41.4496 4.46028C42.2976 3.17946 43.4542 2.49471 44.8876 2.42493C46.3127 2.35634 47.6172 2.96777 48.4651 4.10311C49.3107 5.23491 49.5354 6.71559 49.0671 8.06382C49.0092 8.23176 48.9429 8.40087 48.8732 8.58064C48.8377 8.6717 48.801 8.76513 48.7632 8.86447L48.6236 9.22991L49.0139 9.26303C49.1428 9.27367 49.267 9.28432 49.3876 9.29378C49.6348 9.3127 49.8678 9.33162 50.0972 9.35882C51.7411 9.55041 53.126 10.8703 53.3909 12.4964C53.4429 12.8157 53.4689 13.1362 53.4701 13.4484C53.4725 19.325 53.4737 25.2016 53.4737 31.0794L53.4749 39.6383C53.4725 41.2881 52.8268 42.4826 51.4975 43.282Z" fill="#222344"/>
<path d="M36.9485 13.8555C36.893 13.9395 36.8457 14.0247 36.7972 14.1157C36.7735 14.1583 36.7499 14.2032 36.7227 14.2517L36.5938 14.4788L40.0542 17.0499L40.2339 16.8559C40.2801 16.8063 40.3191 16.7649 40.3558 16.7282C40.4267 16.6537 40.4835 16.5946 40.5379 16.5283C42.1132 14.6113 43.6885 12.6942 45.2614 10.7759C45.4412 10.5559 45.6233 10.3372 45.8042 10.1184C46.295 9.52704 46.8024 8.91442 47.2766 8.28998C47.564 7.91154 47.7391 7.48696 47.8065 7.05411C47.9555 6.10089 47.5877 5.10392 46.7539 4.45937C45.5866 3.55583 43.9191 3.75215 42.9564 4.90523C42.8251 5.06253 42.7128 5.23165 42.604 5.39367L42.5602 5.45871C40.6893 8.25805 38.8183 11.0562 36.9485 13.8555ZM37.4405 14.1843C39.3103 11.385 41.1813 8.58683 43.0534 5.78867L43.0972 5.72245C43.2012 5.56634 43.2994 5.4185 43.4106 5.28487C44.1675 4.37659 45.4778 4.21929 46.392 4.9277C47.3594 5.67632 47.538 6.96896 46.8048 7.93282C46.3376 8.5478 45.835 9.1545 45.3477 9.7411C45.1656 9.96107 44.9835 10.1799 44.8025 10.401C43.2296 12.3193 41.6555 14.2364 40.0802 16.1534C40.0518 16.1877 40.0211 16.222 39.9832 16.2622L37.3625 14.3144C37.3885 14.2659 37.4133 14.2234 37.4405 14.1843Z" fill="#222344"/>
<path d="M39.1435 18.2217L35.7162 15.6873L33.4277 19.1264L36.5239 21.4231L39.1435 18.2217ZM34.2319 18.9869L35.8652 16.5329L38.2932 18.3281L36.4246 20.613L34.2319 18.9869Z" fill="#222344"/>
<path d="M35.5673 22.5537C35.4077 22.4414 35.2468 22.329 35.086 22.2178C34.4379 21.7673 33.7673 21.3025 33.189 20.7726C32.3931 20.0441 31.4895 19.8715 30.3424 20.2263C30.2738 20.2476 30.2052 20.2665 30.1366 20.2854C30.0526 20.3079 29.9686 20.3315 29.8859 20.3575C28.5696 20.7774 27.6435 21.6242 27.1338 22.873C26.4834 24.4673 26.5662 26.0615 26.8027 27.6829C26.837 27.9147 26.8737 28.1465 26.9115 28.3795L26.9765 28.7745L27.3349 28.5959C28.9397 27.7964 30.6073 27.8295 32.1802 27.9312C32.561 27.9561 32.9478 27.9431 33.2765 27.9277C34.3019 27.878 35.1073 27.4747 35.6761 26.7261C35.7577 26.6197 35.8334 26.505 35.9056 26.3843C36.3514 25.6298 36.4591 24.7901 36.2533 23.6607C36.2202 23.4774 36.1681 23.3142 36.0972 23.1675C35.9777 22.9203 35.8039 22.7205 35.5673 22.5537ZM35.3959 26.0816C34.9252 26.8787 34.2215 27.2879 33.2481 27.3352C32.9206 27.3506 32.5693 27.3624 32.2192 27.3399C30.6818 27.2406 29.0521 27.2039 27.4342 27.8969C27.1776 26.2554 27.0463 24.6529 27.6826 23.0942C28.1296 21.9991 28.909 21.2871 30.0668 20.9181C30.1413 20.8945 30.217 20.8732 30.2927 20.8531C30.3684 20.833 30.4441 20.8117 30.5186 20.7892C30.8462 20.6875 31.1418 20.6355 31.415 20.6355C31.933 20.6355 32.3694 20.8223 32.7905 21.2067C33.0187 21.416 33.2576 21.6135 33.5024 21.8027C33.9104 22.1185 34.3338 22.413 34.7489 22.7016C34.8293 22.7571 34.9086 22.8127 34.9878 22.8683C35.0671 22.9239 35.1475 22.9795 35.2267 23.0351C35.481 23.2136 35.6087 23.4253 35.6702 23.7636C35.8488 24.7452 35.7648 25.4595 35.3959 26.0816Z" fill="#222344"/>
<path d="M7.60872 32.436C7.60872 32.5661 7.62291 32.6938 7.63592 32.8168C7.64183 32.8736 7.64893 32.9315 7.65366 32.9906L7.67614 33.2485L7.93513 33.2603C8.00728 33.2638 8.0747 33.2674 8.13738 33.2709C8.26983 33.278 8.39401 33.2851 8.51937 33.2863C8.73698 33.2875 9.89124 33.2863 11.4382 33.2851C14.6207 33.2827 19.4293 33.2804 21.1998 33.2875C22.0099 33.2875 22.8188 33.2875 23.6278 33.2875H27.6748C35.4164 33.2875 43.1593 33.2875 50.9021 33.2863C51.0748 33.2863 51.2451 33.278 51.426 33.2697C51.5123 33.2662 51.6022 33.2615 51.6968 33.2579L51.9819 33.2473V13.6235V13.5123C51.9819 13.3905 51.983 13.2652 51.9783 13.1386C51.9428 12.228 51.4615 11.4758 50.7353 11.082C50.4054 10.9034 50.0246 10.7993 49.613 10.7875C49.3126 10.7792 49.0087 10.7804 48.7142 10.7828C48.4079 10.7851 48.0897 10.7875 47.7811 10.7769C47.353 10.7615 47.036 10.9093 46.7829 11.2393C46.4423 11.6816 46.0769 12.1215 45.7244 12.5473C45.5813 12.72 45.4382 12.8926 45.2963 13.0653L43.8972 14.7719C41.9116 17.1939 39.8573 19.6976 37.8338 22.1575C37.6008 22.4414 37.5369 22.7098 37.6221 23.0564C37.7238 23.4715 37.7912 23.9055 37.822 24.3454C37.9639 26.3962 36.8143 28.2955 34.9635 29.0701C34.1061 29.4285 33.2049 29.4557 32.3593 29.4308C32.1334 29.4238 31.9063 29.4143 31.6804 29.406C31.2819 29.3895 30.8691 29.3729 30.4611 29.3705C30.4517 29.3705 30.4422 29.3705 30.4315 29.3705C29.0999 29.3705 28.0118 29.7596 27.1095 30.5591C26.8528 30.7862 26.5808 30.8725 26.3455 30.8004C26.0936 30.7235 25.8949 30.4716 25.7991 30.1073C25.6525 29.5503 25.5212 28.9353 25.3958 28.2257C25.2965 27.6616 25.2267 27.1294 25.1865 26.622C25.099 25.508 25.1557 24.5181 25.358 23.5826C25.6347 22.2947 26.1728 21.2445 26.964 20.4391C27.5802 19.8123 28.3489 19.3334 29.269 19.0058C29.9218 18.7728 30.6492 18.6663 31.3375 18.5765C31.4344 18.5635 31.5314 18.5469 31.6296 18.5221C31.9217 18.4464 32.2079 18.2903 32.4492 17.9236C33.3965 16.4867 34.371 15.0321 35.3135 13.6259C35.7582 12.9624 36.2041 12.2978 36.6476 11.6331C36.6925 11.5657 36.7256 11.4971 36.7576 11.425C36.7682 11.4013 36.7788 11.3765 36.7883 11.3516C36.8072 11.3067 36.8285 11.257 36.8534 11.2026L37.0485 10.7828H36.1662C34.086 10.7828 32.0045 10.784 29.9242 10.784C23.4444 10.7863 16.7435 10.7875 10.1538 10.7698C10.1514 10.7698 10.1491 10.7698 10.1467 10.7698C9.46786 10.7698 8.80557 11.0442 8.32778 11.5219C8.15039 11.7005 8.00254 11.9016 7.88664 12.1215C7.69505 12.4882 7.59453 12.9033 7.59571 13.3385C7.61227 17.8125 7.61109 22.361 7.60872 26.7604C7.60872 28.6538 7.60872 30.5449 7.60872 32.436ZM8.74643 11.9418C9.11542 11.5728 9.62633 11.3599 10.1514 11.3635C16.7423 11.3812 23.4433 11.3788 29.9242 11.3777C31.9856 11.3777 34.0469 11.3765 36.1083 11.3765C35.6802 12.0175 35.2509 12.6585 34.8216 13.2983C33.8778 14.7056 32.9021 16.1603 31.9548 17.5996C31.9347 17.6303 31.9134 17.6599 31.8921 17.6859C31.7443 17.8716 31.5764 17.9497 31.2606 17.9911C30.5404 18.0845 29.7776 18.1968 29.0703 18.4487C26.7618 19.2707 25.3178 20.956 24.7797 23.4585C24.4698 24.8966 24.4816 26.4435 24.8139 28.3274C24.8459 28.5084 24.8778 28.6846 24.9109 28.8549C25.0103 29.3658 25.1144 29.8282 25.2267 30.2575C25.3379 30.6833 25.5602 31.0168 25.8547 31.2155C25.9529 31.2817 26.0593 31.3326 26.1728 31.3669C26.6069 31.4981 27.0906 31.3657 27.5009 31.0026C28.2969 30.2977 29.2643 29.963 30.4576 29.963C30.8549 29.9642 31.2618 29.982 31.6544 29.9973C31.8827 30.0068 32.1121 30.0163 32.3404 30.0234C32.558 30.0293 32.7839 30.0328 33.0168 30.0269C33.7146 30.0103 34.468 29.9193 35.1906 29.6177C35.9392 29.3043 36.5861 28.8277 37.1005 28.2387C37.8397 27.3931 38.3045 26.3181 38.405 25.1603C38.4287 24.88 38.4322 24.5938 38.4121 24.3064C38.379 23.8322 38.3068 23.365 38.1969 22.9168C38.1566 22.7548 38.1768 22.672 38.2903 22.5348C40.3138 20.0749 42.3681 17.5712 44.3537 15.1491L45.7528 13.4426C45.8947 13.2699 46.0367 13.0984 46.1786 12.9269C46.5345 12.4976 46.9035 12.0541 47.2501 11.6024C47.3872 11.4238 47.5197 11.3623 47.761 11.3706C47.9206 11.3753 48.0815 11.3777 48.2423 11.3788C48.4032 11.38 48.5616 11.3788 48.7177 11.3777C48.7189 11.3777 48.7201 11.3777 48.7225 11.3777C49.0098 11.3753 49.3067 11.3741 49.5964 11.3824C50.6112 11.4108 51.3468 12.144 51.387 13.1658C51.3917 13.2817 51.3905 13.3976 51.3905 13.5135V32.682C51.2202 32.6902 51.0594 32.6973 50.9033 32.6973C43.1616 32.6985 35.4188 32.6985 27.676 32.6985H23.6289C22.8188 32.6985 22.0099 32.6985 21.201 32.6985C21.1477 32.6985 21.091 32.6985 21.033 32.6973C20.1508 32.6938 18.6748 32.6926 17.0368 32.6926C15.4 32.6926 13.6012 32.6938 12.0744 32.695C11.8568 32.695 11.6439 32.695 11.4382 32.695C9.89361 32.6962 8.74052 32.6962 8.52291 32.6962C8.42711 32.6962 8.32896 32.6914 8.21779 32.6843C8.20833 32.5968 8.20123 32.514 8.20123 32.436C8.20005 30.5449 8.20123 28.655 8.20241 26.764C8.2036 25.1142 8.2036 23.4431 8.2036 21.7625C8.2036 20.082 8.20241 18.3932 8.19886 16.7055C8.1965 15.5808 8.19414 14.4573 8.18941 13.3385C8.18586 12.649 8.4898 12.1984 8.74643 11.9418Z" fill="#222344"/>
<path d="M31.4475 43.8271H28.1396L26.7891 49.5086H32.8028L31.4475 43.8271ZM28.6068 44.4185H30.9804L32.0542 48.9173H27.5377L28.6068 44.4185Z" fill="#222344"/>
<path d="M51.9735 37.1726C51.9771 36.7941 51.9806 36.4157 51.9806 36.0372V34.7682H50.8299C41.1416 34.7682 31.4545 34.7682 21.7639 34.7659C21.363 34.7682 19.2247 34.7694 16.8216 34.7694C16.7482 34.7694 16.6761 34.7694 16.6028 34.7694C16.5294 34.7694 16.4561 34.7694 16.3828 34.7694C16.3095 34.7694 16.235 34.7694 16.1616 34.7694C14.092 34.7694 11.9277 34.7682 10.5689 34.7682H9.84509C9.3673 34.7682 8.87414 34.7671 8.38689 34.7718C8.26271 34.773 8.14563 34.7931 8.03209 34.8132C7.9836 34.8215 7.93393 34.8309 7.88071 34.838L7.62644 34.8735V35.1301C7.62644 35.6363 7.6229 36.1389 7.61935 36.638C7.61225 37.8065 7.60397 39.0151 7.64181 40.1966C7.67374 41.203 8.51462 42.0936 9.59911 42.2674C9.94089 42.3218 10.2886 42.3266 10.5878 42.3266C19.4246 42.3289 28.2614 42.3289 37.0993 42.3289C39.791 42.3289 42.4828 42.3289 45.1745 42.3289H49.0169C49.1754 42.3289 49.3339 42.3277 49.4923 42.3254C50.1996 42.3183 50.8429 42.0475 51.3053 41.5638C51.7654 41.0824 52.0149 40.4201 51.9901 39.7496C51.9594 38.8945 51.9664 38.0182 51.9735 37.1726ZM50.8772 41.1569C50.6289 41.4171 50.1866 41.7281 49.4864 41.7352C49.3303 41.7364 49.173 41.7388 49.0169 41.7388H45.1745C33.646 41.7388 22.1175 41.7388 10.589 41.7364C10.3122 41.7364 9.99292 41.7329 9.69371 41.6844C8.89779 41.5567 8.25679 40.8956 8.23432 40.1789C8.19648 39.008 8.20475 37.8585 8.21303 36.6427C8.21539 36.2241 8.21895 35.8042 8.21895 35.3808C8.28281 35.3702 8.34076 35.3631 8.39398 35.3619C8.8765 35.3572 9.36967 35.3572 9.84509 35.3584H10.5701C13.6781 35.3596 20.9892 35.3607 21.7674 35.356C31.4557 35.3584 41.144 35.3584 50.8311 35.3584H51.3905V36.036C51.3905 36.4121 51.3869 36.7894 51.3834 37.1655C51.3763 38.0182 51.368 38.9004 51.4 39.7709C51.4177 40.2853 51.2273 40.7891 50.8772 41.1569Z" fill="#222344"/>
<path d="M22.6442 51.0047C22.0706 50.9988 21.5609 51.2365 21.2711 51.6351C20.9896 52.023 20.9364 52.5375 21.1197 53.0839L21.1871 53.2849H38.5024L38.5308 53.0212C38.5911 52.4701 38.5508 52.0549 38.4054 51.7451C38.3569 51.6422 38.2966 51.55 38.2232 51.4695C37.9501 51.1644 37.5231 51.0225 36.8786 51.0213C35.5528 51.0213 34.2259 51.0225 32.899 51.0237C29.539 51.0272 26.0632 51.0308 22.6442 51.0047ZM36.8798 51.6138C37.3374 51.6138 37.6331 51.6966 37.7845 51.8645C37.924 52.0195 37.9832 52.2927 37.9654 52.6936H21.6271C21.5727 52.4133 21.6141 52.1697 21.7513 51.9816C21.7737 51.9509 21.7974 51.9225 21.8246 51.8953C21.8364 51.8835 21.8494 51.874 21.8613 51.8622C21.8778 51.8468 21.8932 51.8314 21.9109 51.8184C21.9204 51.8101 21.9322 51.8042 21.9429 51.7971C21.9653 51.7818 21.9866 51.7664 22.0103 51.7522C22.015 51.7498 22.0197 51.7475 22.0245 51.7451C22.1959 51.6481 22.4088 51.5949 22.6418 51.5961C23.7109 51.6044 24.7848 51.6091 25.8598 51.6126C26.9348 51.6162 28.0099 51.6174 29.0802 51.6174C30.3645 51.6174 31.6418 51.6162 32.9025 51.615C34.2271 51.615 35.554 51.6126 36.8798 51.6138Z" fill="#222344"/>
</svg>
