<svg xmlns="http://www.w3.org/2000/svg" xml:space="preserve" width="655.359" height="655.359" style="shape-rendering:geometricPrecision;text-rendering:geometricPrecision;image-rendering:optimizeQuality;fill-rule:evenodd;clip-rule:evenodd" viewBox="0 0 6.827 6.827"><defs><style>.fil4{fill:#414141}.fil2{fill:#424343}.fil0{fill:#333;fill-rule:nonzero}</style></defs><g id="Layer_x0020_1"><g id="_517088312"><path id="_211419384" class="fil0" d="m3.121 3.127-.877 1.145-.163-.124.878-1.145z"/><path id="_211419888" class="fil0" d="m2.954 3.127.878 1.145.162-.124-.877-1.145z"/><path id="_211419216" class="fil0" d="M3.038 2.618a.306.306 0 0 1 .217.524.306.306 0 0 1-.525-.217.306.306 0 0 1 .308-.307zm.072.234a.102.102 0 0 0-.175.073.102.102 0 0 0 .175.072.102.102 0 0 0 0-.145z"/><path id="_211419696" style="fill:#5c5c5c" d="M1.092 4.118h4.03l-.041.132-.512 1.65-.023.073H1.53l-.023-.072-.512-1.65-.04-.133z"/><path id="_211420992" class="fil2" d="m4.569 5.901-.023.072H1.53l-.022-.072z"/><path id="_211420920" d="M4.62.853a1.247 1.247 0 0 1 1.25 1.25 1.247 1.247 0 0 1-1.25 1.251 1.241 1.241 0 0 1-.397-.065L3.05 3.98l.648-1.034a1.243 1.243 0 0 1-.327-.842A1.247 1.247 0 0 1 4.62.854z" style="fill:#bbbbbc"/><path id="_211421040" class="fil4" d="M4.979 1.482a.132.132 0 1 1 0 .264.132.132 0 0 1 0-.264z"/><path id="_517087064" class="fil4" d="M5.14 2.14a.102.102 0 1 1 .204 0c0 .177-.08.335-.208.45a.732.732 0 0 1-.487.18.732.732 0 0 1-.487-.18.599.599 0 0 1-.207-.45.102.102 0 1 1 .204 0c0 .116.054.22.14.297.089.079.213.128.35.128A.527.527 0 0 0 5 2.437a.397.397 0 0 0 .14-.296z"/><path id="_517086416" class="fil4" d="M4.32 1.482a.132.132 0 1 1 0 .264.132.132 0 0 1 0-.264z"/><path id="_517086440" class="fil2" d="M1.815 5.359H4.26l-.053.205h-2.34z"/><path id="_517086824" class="fil2" d="M1.71 4.95h2.655l-.053.206h-2.55z"/><path id="_517087952" class="fil2" d="M1.604 4.54H4.47l-.052.205H1.657z"/></g><path style="fill:none" d="M0 0h6.827v6.827H0z"/></g></svg>